<svg width="20" height="20" viewBox="0 0 20 20" fill="none" xmlns="http://www.w3.org/2000/svg">
<g clip-path="url(#clip0_85_5418)">
<path d="M1.66699 10C1.66699 14.6025 5.39783 18.3334 10.0003 18.3334C14.6028 18.3334 18.3337 14.6025 18.3337 10C18.3337 5.39752 14.6028 1.66669 10.0003 1.66669C5.39783 1.66669 1.66699 5.39752 1.66699 10Z" stroke="#838383" stroke-width="1.5" stroke-linecap="round" stroke-linejoin="round"/>
<path d="M10.834 1.70837C10.834 1.70837 13.334 5.00004 13.334 10C13.334 15 10.834 18.2917 10.834 18.2917" stroke="#838383" stroke-width="1.5" stroke-linecap="round" stroke-linejoin="round"/>
<path d="M9.16699 18.2917C9.16699 18.2917 6.66699 15 6.66699 10C6.66699 5.00004 9.16699 1.70837 9.16699 1.70837" stroke="#838383" stroke-width="1.5" stroke-linecap="round" stroke-linejoin="round"/>
<path d="M2.19238 12.9167H17.8091" stroke="#838383" stroke-width="1.5" stroke-linecap="round" stroke-linejoin="round"/>
<path d="M2.19238 7.08337H17.8091" stroke="#838383" stroke-width="1.5" stroke-linecap="round" stroke-linejoin="round"/>
</g>
<defs>
<clipPath id="clip0_85_5418">
<rect width="20" height="20" fill="white"/>
</clipPath>
</defs>
</svg>
